HIERARCHY
ROOT hip
{
	OFFSET 0.000000 0.000000 0.000000 
	CHANNELS 6 Xposition Yposition Zposition Xrotation Zrotation Yrotation
	JOINT abdomen
	{
		OFFSET 0.000000 3.402643 0.000000 
		CHANNELS 3 Xrotation Zrotation Yrotation
		JOINT chest
		{
			OFFSET 0.000000 8.438565 -0.680529 
			CHANNELS 3 Xrotation Zrotation Yrotation
			JOINT neck
			{
				OFFSET 0.000000 10.207942 -0.272212 
				CHANNELS 3 Xrotation Zrotation Yrotation
				JOINT head
				{
					OFFSET 0.000000 3.130431 0.000000 
					CHANNELS 3 Xrotation Zrotation Yrotation
					End Site
					{
						OFFSET 0.000000 3.130435 0.000000 
					}
				}
			}
			JOINT lCollar
			{
				OFFSET 3.470700 6.669187 -0.816635 
				CHANNELS 3 Yrotation Zrotation Xrotation
				JOINT lShldr
				{
					OFFSET 3.198488 0.000000 0.000000 
					CHANNELS 3 Zrotation Yrotation Xrotation
					JOINT lForeArm
					{
						OFFSET 10.139888 0.000000 0.000000 
						CHANNELS 3 Yrotation Zrotation Xrotation
						JOINT lHand
						{
							OFFSET 8.370511 0.000000 0.000000 
							CHANNELS 3 Zrotation Yrotation Xrotation
							End Site
							{
								OFFSET 4.083176 0.000000 0.000000 
							}
						}
					}
				}
			}
			JOINT rCollar
			{
				OFFSET -3.470700 6.669187 -0.816635 
				CHANNELS 3 Yrotation Zrotation Xrotation
				JOINT rShldr
				{
					OFFSET -3.198488 0.000000 0.000000 
					CHANNELS 3 Zrotation Yrotation Xrotation
					JOINT rForeArm
					{
						OFFSET -10.139888 0.000000 0.000000 
						CHANNELS 3 Yrotation Zrotation Xrotation
						JOINT rHand
						{
							OFFSET -8.370511 0.000000 0.000000 
							CHANNELS 3 Zrotation Yrotation Xrotation
							End Site
							{
								OFFSET -4.083176 0.000000 0.000000 
							}
						}
					}
				}
			}
		}
	}
	JOINT lThigh
	{
		OFFSET 5.308129 -1.633274 1.361059 
		CHANNELS 3 Xrotation Zrotation Yrotation
		JOINT lShin
		{
			OFFSET -2.041588 -20.007561 0.000000 
			CHANNELS 3 Xrotation Zrotation Yrotation
			JOINT lFoot
			{
				OFFSET 0.000000 -19.190928 -1.224953 
				CHANNELS 3 Xrotation Yrotation Zrotation
				End Site
				{
					OFFSET 0.000000 -2.449906 4.627600 
				}
			}
		}
	}
	JOINT rThigh
	{
		OFFSET -5.308129 -1.633274 1.361059 
		CHANNELS 3 Xrotation Zrotation Yrotation
		JOINT rShin
		{
			OFFSET 2.041588 -20.007561 0.000000 
			CHANNELS 3 Xrotation Zrotation Yrotation
			JOINT rFoot
			{
				OFFSET 0.000000 -19.190928 -1.224953 
				CHANNELS 3 Xrotation Yrotation Zrotation
				End Site
				{
					OFFSET 0.000000 -2.449906 4.627600 
				}
			}
		}
	}
}
MOTION
Frames: 6
Frame Time: 0.033333
1.470797 45.464779 1.436429 -10.653298 1.225859 -4.961889 0.000000 0.000000 0.000000 16.850950 -6.926940 -5.853964 -22.675455 2.392403 -0.693570 21.634996 0.214804 1.103544 -3.521967 9.154817 6.304141 -88.628815 -19.357166 -20.491096 -23.770231 14.214246 -4.153948 -12.643575 -9.789681 -4.662188 3.089181 -14.089146 8.026228 105.152794 33.734447 2.781406 22.905836 -19.129065 44.515747 -4.520823 -3.690169 -8.621382 -12.547183 22.464821 15.561452 57.750610 -2.416954 -31.843798 -15.907956 -4.017219 20.302856 -17.664417 -24.752165 -12.921278 58.684052 -11.400004 25.748505 -21.036909 2.061071 -9.049949 
1.477636 45.439888 1.516589 -10.596597 1.255101 -4.932808 0.000000 0.000000 0.000000 16.274935 -7.012265 -6.022302 -22.799314 2.167814 -0.683843 21.647781 0.419861 0.976608 -3.521967 9.154817 6.304141 -88.644608 -18.666327 -20.517908 -23.761478 14.226488 -4.009319 -12.961066 -9.608314 -4.628262 3.089181 -14.089146 8.026228 105.071754 32.365410 1.839436 24.507111 -18.179352 44.744030 -2.093600 -2.393364 -8.389420 -12.557351 22.475842 15.510695 57.811413 -2.440771 -31.800329 -16.162094 -4.054893 20.411983 -17.624464 -24.700804 -12.774698 58.745636 -11.490834 25.570730 -21.240204 2.076198 -9.088440 
1.473456 45.438923 1.600586 -10.672411 1.235697 -4.903307 0.000000 0.000000 0.000000 16.046339 -7.089191 -6.082854 -22.880291 2.216611 -0.742388 21.549103 0.371043 0.947309 -3.521967 9.154817 6.304141 -88.648407 -18.216581 -20.537104 -23.789066 14.130052 -4.741296 -12.706339 -9.649587 -4.675615 3.089181 -14.089146 8.026228 104.577248 32.333836 1.093275 25.514099 -17.434513 44.405823 -1.714893 -2.295948 -8.348000 -12.362366 22.466955 15.567759 57.828808 -2.387622 -31.843410 -16.172516 -4.081624 20.430361 -17.389622 -24.650980 -12.757315 58.718159 -11.560637 25.459831 -21.435488 2.103509 -9.108280 
1.432541 45.457928 1.558133 -9.600148 0.564251 -5.000238 0.000000 0.000000 0.000000 14.823257 -6.391618 -5.935569 -23.169361 2.079930 -0.683852 21.695206 0.351515 0.937542 -3.521967 9.154817 6.304141 -88.799171 -17.618652 -20.719421 -23.792727 14.078713 -4.886038 -13.155648 -9.554903 -4.602828 3.089181 -14.089146 8.026228 103.219994 32.130199 -0.721751 28.125425 -15.702277 45.038902 -2.981282 -3.094841 -8.474530 -13.466536 23.328938 15.460871 57.925911 -2.368312 -31.877981 -16.234661 -4.118951 20.500689 -18.288778 -23.940464 -12.781275 58.523861 -11.121968 25.471512 -21.224443 2.051675 -9.024206 
1.399297 45.437435 1.696864 -9.588114 0.554645 -4.853666 0.000000 0.000000 0.000000 14.393263 -6.254179 -6.061739 -23.392685 1.972516 -0.683861 21.909630 0.351522 0.869184 -3.521967 9.154817 6.304141 -89.016518 -16.763268 -20.863577 -23.784264 14.189466 -4.789050 -13.295951 -9.226394 -4.635498 3.089181 -14.089146 8.026228 99.452843 29.687458 -4.156659 35.977203 -9.737355 42.196449 -3.791630 -3.323017 -8.549184 -13.377719 23.355129 15.383659 57.981590 -2.292036 -32.013836 -16.361500 -4.096691 20.494915 -18.044750 -23.745213 -12.640608 58.582504 -11.268503 25.138294 -21.510260 2.069848 -9.005958 
1.402797 45.471348 1.756369 -9.650588 0.262779 -4.716837 0.000000 0.000000 0.000000 13.794262 -6.079819 -6.020799 -22.667353 2.138453 -0.820834 21.696037 0.449171 0.839894 -3.521967 9.154817 6.304141 -89.427612 -15.834184 -20.138647 -23.860708 13.856313 -6.889310 -11.802998 -10.097148 -4.779229 3.089181 -14.089146 8.026228 96.288078 29.062475 -7.924204 41.570492 -5.825957 41.315510 -5.437538 -3.432697 -8.670417 -13.241009 23.608709 15.440857 57.911919 -2.224358 -32.060089 -16.301195 -4.106403 20.509087 -17.635647 -23.640022 -12.986584 58.339268 -11.083596 25.161875 -21.363974 2.082313 -9.007619 
